<?xml version="1.0" encoding="UTF-8" standalone="no"?>
<!-- Uploaded to: SVG Repo, www.svgrepo.com, Generator: SVG Repo Mixer Tools -->

<svg
   width="800px"
   height="800px"
   viewBox="0 0 36 36"
   aria-hidden="true"
   role="img"
   class="iconify iconify--twemoji"
   preserveAspectRatio="xMidYMid meet"
   version="1.1"
   id="svg15"
   sodipodi:docname="crown.svg"
   inkscape:version="1.3.2 (091e20e, 2023-11-25, custom)"
   xmlns:inkscape="http://www.inkscape.org/namespaces/inkscape"
   xmlns:sodipodi="http://sodipodi.sourceforge.net/DTD/sodipodi-0.dtd"
   xmlns="http://www.w3.org/2000/svg"
   xmlns:svg="http://www.w3.org/2000/svg">
  <defs
     id="defs15" />
  <sodipodi:namedview
     id="namedview15"
     pagecolor="#ffffff"
     bordercolor="#000000"
     borderopacity="0.25"
     inkscape:showpageshadow="2"
     inkscape:pageopacity="0.0"
     inkscape:pagecheckerboard="0"
     inkscape:deskcolor="#d1d1d1"
     inkscape:zoom="1.02625"
     inkscape:cx="400.48721"
     inkscape:cy="400"
     inkscape:window-width="1920"
     inkscape:window-height="1017"
     inkscape:window-x="-8"
     inkscape:window-y="-8"
     inkscape:window-maximized="1"
     inkscape:current-layer="svg15" />
  <path
     fill="#f4900c"
     d="M 14.725229,17.189467 8.3708392,9.0744384 5.1850848,17.189467 Z"
     id="path1"
     style="stroke-width:0.9;stroke:#4e3600;stroke-opacity:1;stroke-dasharray:none" />
  <path
     fill="#f4900c"
     d="M 17.946933,7.3112321 12.329494,17.915292 h 11.234021 z"
     id="path2"
     style="stroke-width:0.9;stroke:#4e3600;stroke-opacity:1;stroke-dasharray:none" />
  <path
     fill="#f4900c"
     d="m 21.274771,17.189467 6.35439,-8.1150286 3.185754,8.1150286 z"
     id="path3"
     style="stroke-width:0.9;stroke:#4e3600;stroke-opacity:1;stroke-dasharray:none" />
  <path
     fill="#ffcc4d"
     d="m 27.131868,15.576048 -4.093035,-9.9860819 -5.032841,9.9869379 -0.006,0.0026 -0.006,-0.0034 L 12.961167,5.5891101 8.8681319,15.576048 C 6.1856616,11.846781 3.6889272,9.457893 3.6889272,9.457893 c 0,0 1.4721917,10.8771 1.4721917,21.362186 H 30.838881 c 0,-10.485086 1.472192,-21.362186 1.472192,-21.362186 0,0 -2.496734,2.388888 -5.179205,6.118155 z"
     id="path4"
     style="stroke-width:0.9;stroke:#4e3600;stroke-opacity:1;stroke-dasharray:none" />
  <circle
     fill="#5c913b"
     cx="17.963196"
     cy="21.4049"
     r="3.1566529"
     id="circle4"
     style="stroke-width:0.9;stroke:#4e3600;stroke-opacity:1;stroke-dasharray:none" />
  <circle
     fill="#981ceb"
     cx="25.243696"
     cy="21.4049"
     r="2.064492"
     id="circle5"
     style="stroke-width:0.9;stroke:#4e3600;stroke-opacity:1;stroke-dasharray:none" />
  <circle
     fill="#dd2e44"
     cx="30.712206"
     cy="21.4049"
     r="1.6998678"
     id="circle6"
     style="stroke-width:0.9;stroke:#4e3600;stroke-opacity:1;stroke-dasharray:none" />
  <circle
     fill="#981ceb"
     cx="10.681838"
     cy="21.4049"
     r="2.064492"
     id="circle7"
     style="stroke-width:0.9;stroke:#4e3600;stroke-opacity:1;stroke-dasharray:none" />
  <circle
     fill="#dd2e44"
     cx="5.2133303"
     cy="21.4049"
     r="1.6998678"
     id="circle8"
     style="stroke-width:0.9;stroke:#4e3600;stroke-opacity:1;stroke-dasharray:none" />
  <path
     fill="#ffac33"
     d="M 30.838881,31.676005 H 5.1611189 a 0.8559255,0.8559255 0 1 1 0,-1.711851 H 30.838881 a 0.8559255,0.8559255 0 1 1 0,1.711851 z m 0,-2.983756 H 5.1611189 a 0.8559255,0.8559255 0 1 1 0,-1.711851 H 30.838881 a 0.8559255,0.8559255 0 1 1 0,1.711851 z"
     id="path8"
     style="stroke-width:0.9;stroke:#4e3600;stroke-opacity:1;stroke-dasharray:none" />
  <circle
     fill="#ffcc4d"
     cx="3.8318667"
     cy="9.4578924"
     r="1.2042871"
     id="circle9"
     style="stroke-width:0.9;stroke:#4e3600;stroke-opacity:1;stroke-dasharray:none" />
  <circle
     fill="#f4900c"
     cx="8.3708391"
     cy="9.0744381"
     r="1.0202631"
     id="circle10"
     style="stroke-width:0.9;stroke:#4e3600;stroke-opacity:1;stroke-dasharray:none" />
  <circle
     fill="#ffcc4d"
     cx="12.961167"
     cy="5.5899663"
     r="1.526971"
     id="circle11"
     style="stroke-width:0.9;stroke:#4e3600;stroke-opacity:1;stroke-dasharray:none" />
  <circle
     fill="#ffcc4d"
     cx="32.168133"
     cy="9.4578924"
     r="1.2042871"
     id="circle12"
     style="stroke-width:0.9;stroke:#4e3600;stroke-opacity:1;stroke-dasharray:none" />
  <circle
     fill="#f4900c"
     cx="27.629162"
     cy="9.0744381"
     r="1.0202631"
     id="circle13"
     style="stroke-width:0.9;stroke:#4e3600;stroke-opacity:1;stroke-dasharray:none" />
  <circle
     fill="#ffcc4d"
     cx="23.038832"
     cy="5.5899663"
     r="1.526971"
     id="circle14"
     style="stroke-width:0.9;stroke:#4e3600;stroke-opacity:1;stroke-dasharray:none" />
  <circle
     fill="#f4900c"
     cx="17.946932"
     cy="7.3112321"
     r="1.526971"
     id="circle15"
     style="stroke-width:0.9;stroke:#4e3600;stroke-opacity:1;stroke-dasharray:none" />
</svg>
