<?xml version="1.0" encoding="UTF-8" standalone="no"?>
<!-- Uploaded to: SVG Repo, www.svgrepo.com, Generator: SVG Repo Mixer Tools -->

<svg
   width="800px"
   height="800px"
   viewBox="0 0 1024 1024"
   version="1.1"
   id="svg1"
   sodipodi:docname="discord.svg"
   inkscape:version="1.3.2 (091e20e, 2023-11-25, custom)"
   xmlns:inkscape="http://www.inkscape.org/namespaces/inkscape"
   xmlns:sodipodi="http://sodipodi.sourceforge.net/DTD/sodipodi-0.dtd"
   xmlns="http://www.w3.org/2000/svg"
   xmlns:svg="http://www.w3.org/2000/svg">
  <defs
     id="defs1" />
  <sodipodi:namedview
     id="namedview1"
     pagecolor="#ffffff"
     bordercolor="#000000"
     borderopacity="0.25"
     inkscape:showpageshadow="2"
     inkscape:pageopacity="0.0"
     inkscape:pagecheckerboard="0"
     inkscape:deskcolor="#d1d1d1"
     inkscape:zoom="1.02625"
     inkscape:cx="400.97442"
     inkscape:cy="400"
     inkscape:window-width="1920"
     inkscape:window-height="1017"
     inkscape:window-x="-8"
     inkscape:window-y="-8"
     inkscape:window-maximized="1"
     inkscape:current-layer="svg1" />
  <circle
     cx="512"
     cy="512"
     r="512"
     style="fill:#5865f2"
     id="circle1" />
  <path
     d="m 757.96278,286.12644 a 585.27581,585.27581 0 0 0 -144.47182,-44.80262 2.1902271,2.1902271 0 0 0 -2.32885,1.09512 407.70106,407.70106 0 0 0 -18.02086,36.95662 540.3207,540.3207 0 0 0 -162.25701,0 373.93276,373.93276 0 0 0 -18.27038,-36.95662 2.2734003,2.2734003 0 0 0 -2.32884,-1.09512 583.59849,583.59849 0 0 0 -144.41636,44.80262 2.0654673,2.0654673 0 0 0 -0.9565,0.81787 c -92.0034,137.47141 -117.20487,271.56043 -104.8398,403.95828 a 2.4397466,2.4397466 0 0 0 0.92877,1.66346 588.56115,588.56115 0 0 0 177.22819,89.59138 2.3011246,2.3011246 0 0 0 2.49519,-0.81788 420.64835,420.64835 0 0 0 36.24964,-58.96977 2.2456759,2.2456759 0 0 0 -1.23373,-3.119 387.58702,387.58702 0 0 1 -55.36561,-26.33817 2.2734003,2.2734003 0 0 1 -0.2218,-3.77053 c 3.71507,-2.77244 7.44401,-5.6835 10.99272,-8.62228 a 2.1902271,2.1902271 0 0 1 2.28727,-0.30496 c 116.15134,53.03676 241.90919,53.03676 356.68817,0 a 2.1902271,2.1902271 0 0 1 2.32887,0.27724 c 3.54871,2.92492 7.27764,5.86371 11.08975,8.65 a 2.2734003,2.2734003 0 0 1 -0.19407,3.77053 363.70245,363.70245 0 0 1 -55.44879,26.33817 2.2595381,2.2595381 0 0 0 -1.20601,3.16058 472.31277,472.31277 0 0 0 36.22192,58.94207 2.2456759,2.2456759 0 0 0 2.4952,0.84558 586.60658,586.60658 0 0 0 177.43611,-89.59138 2.2734003,2.2734003 0 0 0 0.92877,-1.63573 C 878.57775,537.87779 838.98731,404.88388 758.83609,286.99976 a 1.8020856,1.8020856 0 0 0 -0.87331,-0.87332 z M 394.30191,610.29391 c -34.97433,0 -63.76611,-32.10485 -63.76611,-71.52893 0,-39.42409 28.25115,-71.52894 63.76611,-71.52894 35.80604,0 64.34831,32.3821 63.7661,71.52894 0.0277,39.42408 -28.2373,71.52893 -63.7661,71.52893 z m 235.83755,0 c -34.97433,0 -63.76611,-32.10485 -63.76611,-71.52893 0,-39.42409 28.25115,-71.52894 63.76611,-71.52894 35.80605,0 64.34831,32.3821 63.7661,71.52894 0.0139,39.42408 -27.96005,71.52893 -63.7661,71.52893 z"
     style="fill:#ffffff;stroke-width:1.38622"
     id="path1" />
</svg>
